# xmcd
# Track frame offsets:
# 150
# 14085
# 29783
# 44048
# 56905
# 73218
# 88135
# 101715
# 117065
# 127510
# 141985
# 158003
# 174485
# 196295
# 215305
# 228300
# 240030
#
# Disc length: 3377 seconds
# Revision: 0
# Processed by: cddbd v1.4PL0 Copyright (c) Steve Scherf et al.
# Submitted via: VisiTrax 2.9.5.180 - For more info visit www.synapsa.com
#
DISCID=f00d2f11
DTITLE=Tanya Tucker - Lizzie and the Rainman
DYEAR=1992
DGENRE=Country
TTITLE0=Lizzie and the Rainman
TTITLE1=I ´m not Lisa
TTITLE2=Love of a Rolling Stone
TTITLE3=San Antonio Stroll
TTITLE4=Someday Soon
TTITLE5=Traveling Salesman
TTITLE6=Should IDo It
TTITLE7=Rodeo Girls
TTITLE8=You JustLoved the Leaving out of Me
TTITLE9=I Use The Soap
TTITLE10=Dancing The Night Away
TTITLE11=It Was Always You
TTITLE12=Texas (When I Die)
TTITLE13=Lover Goodbye
TTITLE14=Can i See you Tonight
TTITLE15=All The Way
TTITLE16=My Song
EXTD=
EXTT0=
EXTT1=
EXTT2=
EXTT3=
EXTT4=
EXTT5=
EXTT6=
EXTT7=
EXTT8=
EXTT9=
EXTT10=
EXTT11=
EXTT12=
EXTT13=
EXTT14=
EXTT15=
EXTT16=
PLAYORDER=
